<svg xmlns="http://www.w3.org/2000/svg" viewBox="0 0 1600 900">
<defs><linearGradient id="bg3" x1="0" y1="0" x2="1" y2="1"><stop stop-color="#061622"/><stop offset="1" stop-color="#0b3343"/></linearGradient><linearGradient id="river" x1="0" y1="0" x2="0" y2="1"><stop stop-color="#8ce6ff"/><stop offset="1" stop-color="#117fb9"/></linearGradient></defs>
<rect width="1600" height="900" fill="url(#bg3)"/>
<path d="M690 70 C560 150 620 260 760 320 C910 385 920 455 770 525 C625 595 610 700 770 830" fill="none" stroke="#234a5a" stroke-width="185" stroke-linecap="round"/>
<path d="M690 70 C560 150 620 260 760 320 C910 385 920 455 770 525 C625 595 610 700 770 830" fill="none" stroke="url(#river)" stroke-width="130" stroke-linecap="round"/>
<path d="M270 170 C390 220 500 250 655 300" fill="none" stroke="#3f94b9" stroke-width="72" stroke-linecap="round"/><path d="M270 170 C390 220 500 250 655 300" fill="none" stroke="#53c3eb" stroke-width="48" stroke-linecap="round"/>
<g stroke="#e5f7ff" stroke-width="5" opacity=".92"><path d="M560 145 l180 55"/><path d="M650 278 l190 10"/><path d="M680 420 l190 45"/><path d="M620 585 l195 18"/><path d="M620 745 l190-25"/></g>
<g fill="#7edfff"><path d="M680 130l40 12-33 26 5-15-45-14 4-10 45 14z"/><path d="M810 345l36 22-39 16 9-14-43-27 6-10 43 27z"/><path d="M720 655l36 22-39 16 9-14-43-27 6-10 43 27z"/></g>
<g fill="#0b2130" stroke="#79dbf6" stroke-width="3"><circle cx="650" cy="180" r="13"/><circle cx="735" cy="285" r="13"/><circle cx="785" cy="445" r="13"/><circle cx="705" cy="590" r="13"/><circle cx="700" cy="730" r="13"/></g>
<g transform="translate(1010 150)"><rect width="480" height="315" rx="24" fill="#0b2534" stroke="#3e6f88" stroke-width="3"/><path d="M55 240 C115 240 135 110 220 110 H270 C355 110 375 240 430 240 V270 H55Z" fill="#324d5d"/><path d="M95 240 C145 240 165 160 225 160 H265 C330 160 350 240 392 240 V270 H95Z" fill="#2389bb"/><path d="M95 240 C145 240 165 160 225 160 H265 C330 160 350 240 392 240" fill="none" stroke="#bcefff" stroke-width="5"/><path d="M75 195H410" stroke="#76d9f5" stroke-width="4" stroke-dasharray="14 10"/><path d="M245 70v170" stroke="#e6f8ff" stroke-width="4"/><path d="M230 84h30l-15-18z" fill="#e6f8ff"/></g>
<g transform="translate(1010 560)"><rect width="480" height="190" rx="24" fill="#0b2534" stroke="#3e6f88" stroke-width="3"/><path d="M50 115H430" stroke="#4e8199" stroke-width="16"/><rect x="215" y="54" width="50" height="105" rx="4" fill="#9eb7c3"/><path d="M80 95h115M285 95h115" stroke="#71dbf8" stroke-width="8"/><path d="M175 95l-22-13v26zM400 95l-22-13v26z" fill="#71dbf8"/></g>
</svg>